<svg xmlns="http://www.w3.org/2000/svg" viewBox="0 0 100 100" width="100px" height="100px"><path fill="#fff" d="M71.567 21.31h-10.03c-.276 0-.5-.224-.5-.5s.224-.5.5-.5h10.03c.276 0 .5.224.5.5S71.843 21.31 71.567 21.31zM74.448 21.31h-1.446c-.276 0-.5-.224-.5-.5s.224-.5.5-.5h1.446c.276 0 .5.224.5.5S74.725 21.31 74.448 21.31zM78.502 21.31h-2.546c-.276 0-.5-.224-.5-.5s.224-.5.5-.5h2.546c.276 0 .5.224.5.5S78.779 21.31 78.502 21.31zM76.477 17.58H66.86c-.276 0-.5-.224-.5-.5s.224-.5.5-.5h9.617c.276 0 .5.224.5.5S76.753 17.58 76.477 17.58zM65.129 17.58h-.58c-.276 0-.5-.224-.5-.5s.224-.5.5-.5h.58c.276 0 .5.224.5.5S65.405 17.58 65.129 17.58zM62.752 17.58h-1.456c-.276 0-.5-.224-.5-.5s.224-.5.5-.5h1.456c.276 0 .5.224.5.5S63.028 17.58 62.752 17.58zM73.914 19.445h-5.027c-.276 0-.5-.224-.5-.5s.224-.5.5-.5h5.027c.276 0 .5.224.5.5S74.19 19.445 73.914 19.445z"/><path fill="#fff" d="M73.914 17.58h-1.257c-.276 0-.5-.224-.5-.5s.224-.5.5-.5h1.257c.276 0 .5.224.5.5S74.19 17.58 73.914 17.58zM67.431 19.445h-1.759c-.276 0-.5-.224-.5-.5s.224-.5.5-.5h1.759c.276 0 .5.224.5.5S67.708 19.445 67.431 19.445z"/><path fill="#c7ede6" d="M88.794,55.52c0.3-0.616,0.566-1.264,0.796-1.943c2.633-7.77-1.349-17.078-9.733-19.325c-0.906-11.384-8.906-19.193-17.941-20.526c-10.341-1.525-19.814,5.044-22.966,15.485c-3.799-1.346-7.501-1.182-10.99,0.857c-1.583,0.732-3.031,1.812-4.33,3.233c-1.907,2.086-3.147,4.719-3.652,7.495c-0.748,0.118-1.483,0.236-2.176,0.484c-4.04,1.449-6.589,4.431-7.288,8.923c-0.435,2.797,0.443,5.587,0.933,6.714c1.935,4.455,6.422,6.98,10.981,6.312c0.227-0.033,0.557,0.069,0.752,0.233c0.241,7.12,3.698,13.417,8.884,17.014c8.321,5.772,19.027,3.994,25.781-3.921c2.894,2.96,6.338,4.398,10.384,3.876c4.023-0.519,7.147-2.739,9.426-6.349c1.053,0.283,2.051,0.691,3.083,0.804c4.042,0.442,7.324-1.165,9.732-4.8c0.922-1.391,1.793-3.194,1.793-6.354C92.264,60.477,90.971,57.51,88.794,55.52z"/><path fill="#fdfcef" d="M76.899,48.892c0,0,11.691,0,11.762,0c2.7,0,4.888-2.189,4.888-4.889c0-2.355-1.666-4.321-3.884-4.784c0.026-0.206,0.043-0.415,0.043-0.628c0-2.796-2.267-5.063-5.063-5.063c-1.651,0-3.113,0.794-4.037,2.017c-0.236-3.113-3.017-5.514-6.27-5.116c-2.379,0.291-4.346,2.13-4.784,4.486c-0.14,0.756-0.126,1.489,0.014,2.177c-0.638-0.687-1.546-1.119-2.557-1.119c-1.85,0-3.361,1.441-3.48,3.261c-0.84-0.186-1.754-0.174-2.717,0.188c-1.84,0.691-3.15,2.423-3.227,4.387c-0.109,2.789,2.12,5.085,4.885,5.085c0.21,0,0.948,0,1.118,0h10.151"/><path fill="#472b29" d="M88.662,49.392H76.899c-0.276,0-0.5-0.224-0.5-0.5s0.224-0.5,0.5-0.5h11.762c2.419,0,4.388-1.969,4.388-4.389c0-2.066-1.466-3.873-3.486-4.296c-0.255-0.053-0.426-0.293-0.394-0.552c0.023-0.186,0.039-0.373,0.039-0.565c0-2.516-2.047-4.562-4.563-4.562c-1.439,0-2.765,0.662-3.638,1.818c-0.125,0.166-0.34,0.236-0.54,0.178c-0.2-0.059-0.342-0.234-0.358-0.441c-0.105-1.378-0.779-2.672-1.851-3.55c-1.082-0.888-2.453-1.278-3.859-1.108c-2.167,0.266-3.956,1.943-4.353,4.08c-0.124,0.669-0.12,1.338,0.012,1.987c0.045,0.22-0.062,0.442-0.261,0.544c-0.2,0.104-0.443,0.06-0.595-0.104c-0.574-0.618-1.352-0.959-2.19-0.959c-1.569,0-2.878,1.227-2.981,2.793c-0.01,0.146-0.082,0.28-0.199,0.367c-0.117,0.088-0.268,0.118-0.408,0.089c-0.84-0.184-1.637-0.131-2.433,0.167c-1.669,0.627-2.836,2.209-2.903,3.938c-0.047,1.207,0.387,2.351,1.222,3.219c0.835,0.868,1.958,1.347,3.163,1.347h11.269c0.276,0,0.5,0.224,0.5,0.5s-0.224,0.5-0.5,0.5H62.474c-1.479,0-2.858-0.587-3.884-1.654c-1.025-1.065-1.558-2.469-1.5-3.95c0.083-2.126,1.51-4.069,3.551-4.835c0.8-0.3,1.628-0.398,2.468-0.299c0.376-1.822,1.997-3.182,3.905-3.182c0.685,0,1.354,0.18,1.944,0.51c0-0.386,0.035-0.772,0.107-1.159c0.476-2.562,2.62-4.573,5.215-4.891c1.68-0.209,3.319,0.265,4.615,1.327c1.004,0.822,1.717,1.95,2.039,3.193c1.011-0.915,2.318-1.425,3.713-1.425c3.067,0,5.563,2.495,5.563,5.562c0,0.084-0.002,0.166-0.007,0.248c2.254,0.674,3.848,2.778,3.848,5.165C94.05,46.975,91.633,49.392,88.662,49.392z"/><path fill="#fdfcef" d="M74.066,38.123c-1.808-0.119-3.365,1.13-3.476,2.789c-0.014,0.206-0.005,0.409,0.025,0.606c-0.349-0.394-0.865-0.661-1.458-0.7c-1.085-0.071-2.022,0.645-2.158,1.62c-0.197-0.054-0.403-0.09-0.616-0.104c-1.582-0.104-2.944,0.989-3.042,2.441"/><path fill="#472b29" d="M63.342,45.024c-0.006,0-0.012,0-0.017-0.001c-0.138-0.009-0.242-0.128-0.233-0.266c0.106-1.587,1.592-2.784,3.308-2.673c0.135,0.008,0.271,0.025,0.409,0.053c0.273-0.969,1.259-1.651,2.366-1.568c0.425,0.027,0.823,0.16,1.163,0.382c0.001-0.019,0.002-0.037,0.003-0.056c0.12-1.793,1.8-3.162,3.742-3.021c0.138,0.009,0.242,0.128,0.233,0.266c-0.009,0.137-0.135,0.252-0.266,0.232c-1.678-0.093-3.109,1.039-3.21,2.558c-0.013,0.184-0.005,0.369,0.023,0.551c0.017,0.109-0.041,0.217-0.141,0.265c-0.1,0.047-0.219,0.022-0.293-0.061c-0.318-0.359-0.788-0.584-1.288-0.617c-0.93-0.043-1.775,0.556-1.894,1.405c-0.01,0.071-0.05,0.135-0.11,0.175c-0.06,0.039-0.133,0.051-0.204,0.032c-0.191-0.052-0.381-0.084-0.566-0.097c-1.43-0.086-2.688,0.896-2.776,2.208C63.583,44.923,63.473,45.024,63.342,45.024z"/><path fill="#fdfcef" d="M90.641,39.792c-1.699-0.801-3.664-0.234-4.389,1.267c-0.09,0.186-0.157,0.379-0.201,0.574"/><path fill="#472b29" d="M86.051,41.882c-0.018,0-0.037-0.002-0.056-0.006c-0.135-0.031-0.219-0.165-0.188-0.3c0.049-0.216,0.123-0.427,0.219-0.626c0.783-1.622,2.901-2.242,4.721-1.385c0.125,0.06,0.179,0.208,0.12,0.333c-0.059,0.125-0.208,0.177-0.333,0.12c-1.573-0.743-3.394-0.227-4.058,1.148c-0.08,0.166-0.141,0.341-0.182,0.521C86.269,41.803,86.166,41.882,86.051,41.882z"/><path fill="#fff" d="M18.459 47.556H8.429c-.276 0-.5-.224-.5-.5s.224-.5.5-.5h10.031c.276 0 .5.224.5.5S18.736 47.556 18.459 47.556zM21.34 47.556h-1.446c-.276 0-.5-.224-.5-.5s.224-.5.5-.5h1.446c.276 0 .5.224.5.5S21.617 47.556 21.34 47.556zM25.395 47.556h-2.546c-.276 0-.5-.224-.5-.5s.224-.5.5-.5h2.546c.276 0 .5.224.5.5S25.671 47.556 25.395 47.556zM25.395 49.422h-9.616c-.276 0-.5-.224-.5-.5s.224-.5.5-.5h9.616c.276 0 .5.224.5.5S25.671 49.422 25.395 49.422zM14.047 49.422h-.58c-.276 0-.5-.224-.5-.5s.224-.5.5-.5h.58c.276 0 .5.224.5.5S14.324 49.422 14.047 49.422zM11.67 49.422h-1.457c-.276 0-.5-.224-.5-.5s.224-.5.5-.5h1.457c.276 0 .5.224.5.5S11.947 49.422 11.67 49.422zM20.806 45.691h-5.027c-.276 0-.5-.224-.5-.5s.224-.5.5-.5h5.027c.276 0 .5.224.5.5S21.083 45.691 20.806 45.691zM20.806 43.827h-1.257c-.276 0-.5-.224-.5-.5s.224-.5.5-.5h1.257c.276 0 .5.224.5.5S21.083 43.827 20.806 43.827zM17.538 51.286h-1.759c-.276 0-.5-.224-.5-.5s.224-.5.5-.5h1.759c.276 0 .5.224.5.5S17.814 51.286 17.538 51.286zM71.637 21.279h-10.03c-.276 0-.5-.224-.5-.5s.224-.5.5-.5h10.03c.276 0 .5.224.5.5S71.914 21.279 71.637 21.279zM74.519 21.279h-1.446c-.276 0-.5-.224-.5-.5s.224-.5.5-.5h1.446c.276 0 .5.224.5.5S74.795 21.279 74.519 21.279zM78.573 21.279h-2.546c-.276 0-.5-.224-.5-.5s.224-.5.5-.5h2.546c.276 0 .5.224.5.5S78.849 21.279 78.573 21.279zM76.547 17.549h-9.617c-.276 0-.5-.224-.5-.5s.224-.5.5-.5h9.617c.276 0 .5.224.5.5S76.824 17.549 76.547 17.549zM65.199 17.549h-.58c-.276 0-.5-.224-.5-.5s.224-.5.5-.5h.58c.276 0 .5.224.5.5S65.476 17.549 65.199 17.549zM62.822 17.549h-1.456c-.276 0-.5-.224-.5-.5s.224-.5.5-.5h1.456c.276 0 .5.224.5.5S63.099 17.549 62.822 17.549zM73.984 19.415h-5.027c-.276 0-.5-.224-.5-.5s.224-.5.5-.5h5.027c.276 0 .5.224.5.5S74.26 19.415 73.984 19.415z"/><path fill="#fff" d="M73.984 17.549h-1.257c-.276 0-.5-.224-.5-.5s.224-.5.5-.5h1.257c.276 0 .5.224.5.5S74.26 17.549 73.984 17.549zM67.501 19.415h-1.759c-.276 0-.5-.224-.5-.5s.224-.5.5-.5h1.759c.276 0 .5.224.5.5S67.778 19.415 67.501 19.415z"/><path fill="#8889b9" d="M66.905,72.49H37.192c-3.766,0-6.847-3.081-6.847-6.847V35.929c0-3.766,3.081-6.847,6.847-6.847h29.713c3.766,0,6.847,3.081,6.847,6.847v29.713C73.753,69.408,70.671,72.49,66.905,72.49z"/><path fill="#472b29" d="M66.905,73.19H37.192c-4.162,0-7.547-3.386-7.547-7.548V35.929c0-4.161,3.386-7.547,7.547-7.547h29.713c4.162,0,7.548,3.386,7.548,7.547v29.713C74.453,69.804,71.067,73.19,66.905,73.19z M37.192,29.783c-3.39,0-6.147,2.757-6.147,6.146v29.713c0,3.39,2.757,6.147,6.147,6.147h29.713c3.39,0,6.147-2.758,6.147-6.147V35.929c0-3.39-2.758-6.146-6.147-6.146H37.192z"/><path fill="#fdfcee" d="M65.103,69.389H38.995c-3.052,0-5.549-2.497-5.549-5.549V37.732c0-3.052,2.497-5.549,5.549-5.549h26.109c3.052,0,5.549,2.497,5.549,5.549V63.84C70.652,66.892,68.155,69.389,65.103,69.389z"/><path fill="#472b29" d="M64.998 69.739H39.1c-3.311 0-6.004-2.693-6.004-6.004V37.837c0-3.311 2.693-6.004 6.004-6.004h24.663c.193 0 .35.156.35.35 0 .193-.157.35-.35.35H39.1c-2.924 0-5.304 2.38-5.304 5.305v25.898c0 2.925 2.379 5.305 5.304 5.305h25.898c2.925 0 5.304-2.38 5.304-5.305V49.408c0-.193.157-.35.35-.35s.35.156.35.35v14.327C71.002 67.046 68.309 69.739 64.998 69.739zM70.652 47.69c-.193 0-.35-.156-.35-.35v-2.756c0-.193.157-.35.35-.35s.35.156.35.35v2.756C71.002 47.534 70.846 47.69 70.652 47.69zM70.652 43.556c-.193 0-.35-.156-.35-.35v-1.378c0-.193.157-.35.35-.35s.35.156.35.35v1.378C71.002 43.4 70.846 43.556 70.652 43.556z"/><path fill="#bcbce2" d="M61.642,51.025c-0.03-1.428,0.743-2.332,2.037-2.833c-0.079-0.78-0.987-2.972-1.446-3.494c-1.242,0.581-2.418,0.493-3.408-0.485c-1.006-0.993-1.085-2.181-0.501-3.45c-1.091-0.672-2.261-1.157-3.512-1.447c-0.423,1.231-1.244,2.002-2.53,2.097c-1.525,0.112-2.513-0.676-3.035-2.084c-1.251,0.306-2.417,0.79-3.498,1.467c0.595,1.257,0.518,2.432-0.46,3.427c-0.99,1.007-2.176,1.101-3.448,0.515c-0.663,1.091-1.139,2.258-1.425,3.508c1.272,0.466,2.039,1.339,2.071,2.692c0.033,1.408-0.725,2.328-2.032,2.837c0.301,1.24,0.791,2.394,1.468,3.475c1.234-0.55,2.386-0.459,3.359,0.487c0.991,0.964,1.111,2.129,0.563,3.387c1.092,0.664,2.253,1.138,3.495,1.425c0.019-0.037,0.032-0.059,0.042-0.083c0.449-1.171,1.469-1.919,2.636-1.934c1.248-0.016,2.282,0.68,2.759,1.869c0.052,0.13,0.112,0.127,0.223,0.099c1.124-0.284,2.185-0.722,3.181-1.315c0.054-0.032,0.106-0.07,0.149-0.098c-0.506-1.142-0.46-2.225,0.349-3.168c0.973-1.133,2.196-1.3,3.556-0.721c0.671-1.085,1.155-2.242,1.449-3.48C62.429,53.238,61.67,52.379,61.642,51.025z M52.046,52.975c-1.133-0.005-2.046-0.923-2.041-2.053c0.005-1.132,0.928-2.04,2.07-2.029c1.141,0.011,2.051,0.956,2.018,2.101C54.062,52.058,53.197,52.968,52.046,52.975z"/><path fill="#472b29" d="M49.322,62.898c-0.021,0-0.042-0.002-0.062-0.007c-1.271-0.295-2.482-0.788-3.598-1.468c-0.149-0.091-0.208-0.278-0.139-0.438c0.519-1.193,0.36-2.173-0.486-2.996c-0.827-0.805-1.8-0.939-2.972-0.419c-0.16,0.07-0.347,0.015-0.439-0.134c-0.697-1.114-1.205-2.317-1.511-3.577c-0.041-0.171,0.05-0.346,0.213-0.409c1.246-0.485,1.837-1.304,1.809-2.503c-0.027-1.151-0.63-1.928-1.842-2.371c-0.165-0.062-0.26-0.235-0.221-0.407c0.292-1.275,0.785-2.49,1.467-3.612c0.093-0.151,0.284-0.211,0.446-0.137c1.212,0.561,2.211,0.413,3.052-0.442c0.831-0.845,0.96-1.836,0.394-3.032c-0.076-0.16-0.02-0.352,0.131-0.446c1.094-0.685,2.306-1.192,3.601-1.51c0.174-0.042,0.35,0.052,0.412,0.218c0.5,1.347,1.376,1.943,2.682,1.858c1.079-0.08,1.828-0.706,2.225-1.861c0.058-0.17,0.235-0.267,0.41-0.228c1.273,0.295,2.49,0.797,3.617,1.49c0.151,0.093,0.208,0.283,0.134,0.444c-0.561,1.217-0.421,2.215,0.429,3.054c0.845,0.834,1.831,0.971,3.014,0.416c0.141-0.062,0.309-0.03,0.411,0.086c0.501,0.569,1.446,2.846,1.532,3.69c0.016,0.156-0.075,0.305-0.222,0.361c-1.246,0.483-1.839,1.301-1.813,2.5l0,0c0.023,1.138,0.618,1.914,1.816,2.373c0.164,0.063,0.256,0.237,0.215,0.408c-0.299,1.26-0.801,2.465-1.492,3.582c-0.09,0.147-0.277,0.205-0.435,0.139c-1.288-0.548-2.319-0.342-3.153,0.626c-0.681,0.794-0.778,1.71-0.295,2.799c0.069,0.156,0.016,0.34-0.127,0.434l-0.16,0.105c-1.021,0.607-2.122,1.063-3.276,1.355c-0.383,0.097-0.556-0.114-0.633-0.307c-0.421-1.047-1.365-1.646-2.431-1.65c-1.027,0.014-1.914,0.668-2.314,1.709c-0.005,0.014-0.035,0.076-0.041,0.088C49.601,62.801,49.459,62.898,49.322,62.898z M46.279,60.976c0.897,0.515,1.855,0.905,2.855,1.164c0.566-1.199,1.661-1.942,2.877-1.957c0.016-0.001,0.031-0.001,0.046-0.001c1.329,0,2.431,0.722,2.981,1.945c1.016-0.271,1.968-0.666,2.854-1.181c-0.449-1.215-0.272-2.336,0.518-3.256c0.965-1.126,2.229-1.443,3.674-0.927c0.524-0.896,0.921-1.849,1.184-2.839c-1.285-0.583-1.95-1.555-1.979-2.894l0,0c-0.029-1.396,0.659-2.447,1.995-3.055c-0.175-0.76-0.777-2.224-1.171-2.847c-1.336,0.531-2.554,0.303-3.537-0.668c-0.984-0.972-1.222-2.196-0.696-3.555c-0.9-0.522-1.857-0.918-2.854-1.177c-0.52,1.238-1.455,1.938-2.721,2.031c-1.512,0.114-2.637-0.585-3.271-2.019c-1.013,0.275-1.968,0.675-2.847,1.192c0.533,1.337,0.309,2.553-0.654,3.531c-0.974,0.992-2.198,1.235-3.552,0.712c-0.515,0.898-0.904,1.856-1.16,2.855c1.285,0.565,1.979,1.562,2.01,2.896c0.033,1.39-0.646,2.438-1.969,3.05c0.268,0.99,0.67,1.94,1.198,2.834c1.312-0.49,2.502-0.258,3.459,0.673C46.504,58.44,46.762,59.641,46.279,60.976z M52.045,53.324h-0.001c-0.642-0.002-1.243-0.254-1.694-0.707c-0.452-0.454-0.698-1.057-0.696-1.697c0.003-0.64,0.255-1.239,0.71-1.688c0.458-0.45,1.05-0.695,1.713-0.689c0.646,0.006,1.249,0.266,1.697,0.73c0.449,0.467,0.686,1.081,0.667,1.729c-0.037,1.295-1.088,2.315-2.395,2.321C52.047,53.324,52.046,53.324,52.045,53.324z M52.054,49.242c-0.454,0-0.878,0.174-1.199,0.489c-0.321,0.316-0.499,0.74-0.501,1.192s0.173,0.879,0.492,1.199c0.319,0.321,0.745,0.499,1.199,0.502c0.926-0.006,1.671-0.727,1.697-1.642c0.013-0.459-0.154-0.894-0.472-1.224c-0.316-0.329-0.743-0.513-1.199-0.518C52.065,49.242,52.06,49.242,52.054,49.242z"/><path fill="#7878aa" d="M59.451,49.143c-1.034-4.019-5.164-6.448-9.224-5.425c-4.061,1.023-6.515,5.111-5.481,9.13c1.034,4.019,5.164,6.448,9.224,5.425C58.031,57.25,60.485,53.162,59.451,49.143z M53.593,56.807c-3.243,0.817-6.541-1.122-7.366-4.332c-0.826-3.21,1.134-6.474,4.377-7.291c3.243-0.817,6.409,1.22,7.235,4.43C58.664,52.823,56.836,55.99,53.593,56.807z"/><path fill="#472b29" d="M52.077 57.279c-2.767 0-5.294-1.869-6.007-4.67-.409-1.604-.168-3.271.678-4.694.845-1.423 2.194-2.431 3.799-2.839 1.604-.408 3.271-.169 4.694.678 1.423.845 2.432 2.194 2.84 3.799.843 3.312-1.165 6.691-4.477 7.534l0 0C53.093 57.216 52.581 57.279 52.077 57.279zM53.542 56.844h.006H53.542zM52.085 45.382c-.472 0-.947.06-1.416.179-1.475.375-2.715 1.302-3.492 2.61s-.999 2.841-.623 4.315c.775 3.044 3.884 4.89 6.927 4.116l0 0c3.044-.775 4.89-3.883 4.115-6.927-.375-1.475-1.303-2.715-2.611-3.492C54.093 45.653 53.097 45.382 52.085 45.382zM44.918 48.656c-.028 0-.057-.005-.084-.015-.13-.047-.197-.19-.151-.32.882-2.455 2.917-4.305 5.441-4.947.133-.033.27.047.304.181s-.047.27-.181.304c-2.364.602-4.268 2.333-5.094 4.633C45.117 48.592 45.021 48.656 44.918 48.656z"/><path fill="#472b29" d="M52.235,58.687c-0.787,0-1.589-0.115-2.383-0.352c-2.711-0.805-4.725-2.839-5.385-5.44c-0.034-0.134,0.047-0.27,0.181-0.304c0.134-0.032,0.27,0.047,0.304,0.181c0.617,2.429,2.502,4.33,5.043,5.084c2.557,0.763,5.197,0.191,7.058-1.522c0.102-0.095,0.261-0.087,0.354,0.015c0.093,0.102,0.087,0.259-0.015,0.353C55.979,58.002,54.152,58.687,52.235,58.687z"/><path fill="#a2a2cc" d="M58.71,54.599c-0.156,0.287-0.331,0.564-0.522,0.828"/><path fill="#472b29" d="M58.188,55.677c-0.051,0-0.102-0.016-0.146-0.048c-0.112-0.08-0.137-0.236-0.056-0.349c0.185-0.256,0.355-0.525,0.505-0.801c0.066-0.123,0.219-0.166,0.339-0.101c0.121,0.066,0.166,0.218,0.1,0.339c-0.161,0.295-0.342,0.583-0.539,0.855C58.341,55.641,58.265,55.677,58.188,55.677z"/><path fill="#a2a2cc" d="M59.451,52.645c-0.104,0.455-0.25,0.9-0.435,1.328"/><path fill="#472b29" d="M59.016 54.223c-.033 0-.067-.007-.1-.021-.126-.055-.185-.202-.13-.329.179-.412.321-.845.421-1.284.03-.135.162-.216.299-.188.135.031.219.165.188.3-.107.47-.259.931-.45 1.372C59.204 54.167 59.112 54.223 59.016 54.223zM59.404 49.343c-.112 0-.213-.075-.242-.188-.608-2.391-2.364-4.304-4.697-5.117-.13-.046-.199-.188-.153-.318.045-.131.188-.196.318-.154 2.491.869 4.366 2.913 5.016 5.467.034.134-.047.27-.181.304C59.445 49.34 59.424 49.343 59.404 49.343z"/><path fill="#a2a2cc" d="M54.752 45.582L56.767 45.094"/><path fill="#472b29" d="M54.752,45.707c-0.057,0-0.107-0.038-0.122-0.096c-0.016-0.067,0.025-0.135,0.092-0.15l2.015-0.487c0.066-0.019,0.135,0.024,0.151,0.092s-0.025,0.135-0.092,0.15l-2.015,0.487C54.771,45.706,54.762,45.707,54.752,45.707z"/><path fill="#a2a2cc" d="M56.509 46.74L58.025 46.489"/><path fill="#472b29" d="M56.509,46.865c-0.06,0-0.113-0.043-0.124-0.104c-0.011-0.068,0.035-0.133,0.103-0.144l1.516-0.251c0.065-0.009,0.133,0.034,0.144,0.103s-0.035,0.133-0.103,0.144l-1.516,0.251C56.522,46.864,56.516,46.865,56.509,46.865z"/><path fill="#a2a2cc" d="M57.492 48.295L59.029 48.129"/><path fill="#472b29" d="M57.492,48.42c-0.063,0-0.117-0.048-0.125-0.111c-0.007-0.069,0.042-0.131,0.111-0.138l1.537-0.165c0.066-0.015,0.13,0.042,0.138,0.11c0.007,0.069-0.042,0.131-0.111,0.138l-1.537,0.165C57.5,48.42,57.496,48.42,57.492,48.42z"/><path fill="#a2a2cc" d="M49.17 44.048L49.322 45.455"/><path fill="#472b29" d="M49.321,45.58c-0.063,0-0.117-0.048-0.125-0.111l-0.151-1.407c-0.007-0.069,0.042-0.131,0.111-0.138c0.065-0.014,0.129,0.042,0.138,0.11l0.151,1.407c0.007,0.069-0.042,0.131-0.111,0.138C49.33,45.58,49.326,45.58,49.321,45.58z"/><path fill="#a2a2cc" d="M47.675 44.836L48.139 46.392"/><path fill="#472b29" d="M48.139,46.517c-0.054,0-0.104-0.035-0.12-0.089l-0.464-1.556c-0.02-0.066,0.018-0.136,0.084-0.156c0.067-0.017,0.136,0.019,0.155,0.084l0.464,1.556c0.02,0.066-0.018,0.136-0.084,0.156C48.163,46.515,48.15,46.517,48.139,46.517z"/><path fill="#a2a2cc" d="M46.174 46.211L47.088 47.565"/><path fill="#472b29" d="M47.088,47.69c-0.04,0-0.08-0.02-0.104-0.055l-0.914-1.354c-0.039-0.058-0.023-0.136,0.034-0.174c0.057-0.039,0.135-0.023,0.173,0.033l0.914,1.354c0.039,0.058,0.023,0.136-0.034,0.174C47.136,47.683,47.112,47.69,47.088,47.69z"/><g><path fill="#a2a2cc" d="M45.082 53.801L46.641 53.72"/><path fill="#472b29" d="M45.082,53.925c-0.066,0-0.122-0.052-0.125-0.118c-0.003-0.069,0.05-0.128,0.119-0.132l1.559-0.081c0.063-0.002,0.128,0.05,0.131,0.118c0.003,0.069-0.05,0.128-0.119,0.132l-1.559,0.081C45.086,53.925,45.084,53.925,45.082,53.925z"/></g><g><path fill="#a2a2cc" d="M46.021 55.493L47.535 55.042"/><path fill="#472b29" d="M46.021,55.618c-0.054,0-0.104-0.035-0.12-0.089c-0.02-0.066,0.018-0.136,0.084-0.156l1.513-0.451c0.068-0.015,0.136,0.019,0.155,0.084c0.02,0.066-0.018,0.136-0.084,0.156l-1.513,0.451C46.045,55.616,46.033,55.618,46.021,55.618z"/></g><g><path fill="#a2a2cc" d="M47.649 56.909L48.926 56.253"/><path fill="#472b29" d="M47.648,57.034c-0.045,0-0.089-0.024-0.111-0.068c-0.031-0.061-0.007-0.137,0.054-0.168l1.277-0.656c0.059-0.03,0.136-0.009,0.168,0.055c0.031,0.061,0.007,0.137-0.054,0.168l-1.277,0.656C47.688,57.029,47.668,57.034,47.648,57.034z"/></g><g><path fill="#a2a2cc" d="M49.732 57.883L50.676 56.981"/><path fill="#472b29" d="M49.732,58.007c-0.033,0-0.066-0.013-0.09-0.039c-0.048-0.05-0.046-0.129,0.004-0.177l0.944-0.902c0.05-0.046,0.129-0.046,0.177,0.005c0.048,0.05,0.046,0.129-0.004,0.177l-0.944,0.902C49.794,57.996,49.763,58.007,49.732,58.007z"/></g><g><path fill="#a2a2cc" d="M51.98 58.429L52.713 57.064"/><path fill="#472b29" d="M51.98,58.554c-0.02,0-0.041-0.005-0.059-0.015c-0.061-0.033-0.083-0.108-0.051-0.17l0.732-1.365c0.034-0.061,0.109-0.082,0.169-0.051c0.061,0.033,0.083,0.108,0.051,0.17l-0.732,1.365C52.068,58.531,52.025,58.554,51.98,58.554z"/></g><g><path fill="#a2a2cc" d="M54.406 58.038L54.522 56.603"/><path fill="#472b29" d="M54.406,58.163c-0.003,0-0.007,0-0.01,0c-0.068-0.006-0.12-0.066-0.114-0.135l0.115-1.435c0.006-0.068,0.069-0.117,0.135-0.115c0.068,0.006,0.12,0.066,0.114,0.135l-0.115,1.435C54.525,58.113,54.471,58.163,54.406,58.163z"/></g><g><path fill="#a2a2cc" d="M50.96,43.445c0.462-0.063,0.93-0.084,1.396-0.061"/><path fill="#472b29" d="M50.959,43.695c-0.123,0-0.23-0.091-0.247-0.216c-0.019-0.137,0.077-0.263,0.213-0.282c0.477-0.065,0.962-0.085,1.443-0.063c0.138,0.007,0.244,0.124,0.237,0.262c-0.006,0.138-0.111,0.237-0.262,0.238c-0.449-0.023-0.904-0.003-1.35,0.06C50.982,43.694,50.971,43.695,50.959,43.695z"/></g><g><path fill="#fdfcef" d="M40.736,75.257c1.883,0,3.517,0,3.54,0c2.11,0,3.821-1.674,3.821-3.739c0-1.802-1.302-3.305-3.035-3.66c0.02-0.158,0.034-0.317,0.034-0.48c0-2.139-1.772-3.873-3.957-3.873c-1.29,0-2.433,0.607-3.155,1.543c-0.185-2.381-2.358-4.218-4.9-3.913c-1.859,0.223-3.397,1.629-3.739,3.431c-0.11,0.578-0.098,1.139,0.011,1.665c-0.498-0.525-1.208-0.856-1.998-0.856c-1.446,0-2.627,1.102-2.72,2.494c-0.657-0.142-1.371-0.133-2.123,0.143c-1.438,0.528-2.462,1.853-2.522,3.356c-0.085,2.133,1.657,3.889,3.818,3.889c0.164,0,0.741,0,0.874,0h7.934 M34.259,75.257h0.36"/><path fill="#472b29" d="M44.276,75.757h-3.541c-0.276,0-0.5-0.224-0.5-0.5s0.224-0.5,0.5-0.5h3.541c1.831,0,3.32-1.453,3.32-3.239c0-1.524-1.108-2.857-2.636-3.169c-0.256-0.053-0.429-0.294-0.396-0.553c0.018-0.138,0.03-0.276,0.03-0.418c0-1.86-1.551-3.373-3.457-3.373c-1.092,0-2.098,0.491-2.759,1.349c-0.127,0.164-0.34,0.23-0.539,0.174c-0.198-0.06-0.339-0.234-0.355-0.44c-0.079-1.02-0.565-1.944-1.37-2.604c-0.829-0.681-1.883-0.98-2.973-0.854c-1.646,0.197-3.006,1.442-3.307,3.028c-0.094,0.494-0.09,0.988,0.01,1.471c0.045,0.219-0.06,0.441-0.258,0.545c-0.197,0.103-0.44,0.063-0.595-0.1c-0.428-0.451-1.009-0.699-1.636-0.699c-1.169,0-2.145,0.891-2.221,2.027c-0.01,0.146-0.082,0.279-0.198,0.366c-0.116,0.087-0.263,0.121-0.407,0.089c-0.636-0.136-1.24-0.098-1.845,0.125c-1.262,0.463-2.144,1.631-2.195,2.905c-0.035,0.876,0.283,1.708,0.895,2.345c0.635,0.66,1.495,1.024,2.423,1.024h8.808c0.276,0,0.5,0.224,0.5,0.5s-0.224,0.5-0.5,0.5h-8.808c-1.185,0-2.332-0.485-3.145-1.331c-0.802-0.835-1.219-1.928-1.173-3.077c0.067-1.675,1.212-3.204,2.85-3.806c0.611-0.225,1.242-0.308,1.88-0.244c0.344-1.396,1.629-2.424,3.135-2.424c0.493,0,0.977,0.113,1.414,0.322c0.009-0.241,0.037-0.483,0.083-0.726c0.381-2.009,2.096-3.586,4.17-3.834c1.362-0.168,2.685,0.218,3.726,1.072c0.748,0.613,1.278,1.409,1.546,2.302c0.791-0.648,1.786-1.007,2.842-1.007c2.458,0,4.457,1.962,4.457,4.373c0,0.034,0,0.068-0.001,0.103c1.764,0.555,3.003,2.188,3.003,4.037C48.597,73.855,46.659,75.757,44.276,75.757z M34.618,75.757h-0.36c-0.276,0-0.5-0.224-0.5-0.5s0.224-0.5,0.5-0.5h0.36c0.276,0,0.5,0.224,0.5,0.5S34.895,75.757,34.618,75.757z"/><path fill="#472b29" d="M42.568,69.954c-0.018,0-0.037-0.002-0.055-0.006c-0.135-0.031-0.219-0.165-0.188-0.3c0.038-0.166,0.095-0.327,0.169-0.479c0.604-1.224,2.274-1.673,3.722-1.006c0.125,0.058,0.18,0.206,0.122,0.331c-0.058,0.126-0.206,0.179-0.332,0.122c-1.202-0.556-2.577-0.208-3.063,0.774c-0.058,0.116-0.101,0.239-0.13,0.368C42.786,69.875,42.683,69.954,42.568,69.954z"/><g><path fill="#472b29" d="M37.41,75.757h-1.107c-0.276,0-0.5-0.224-0.5-0.5s0.224-0.5,0.5-0.5h1.107c0.276,0,0.5,0.224,0.5,0.5S37.686,75.757,37.41,75.757z"/></g></g></svg>